<svg xmlns="http://www.w3.org/2000/svg" xmlns:xlink="http://www.w3.org/1999/xlink" width="200" height="200" class="icon" p-id="2451" t="1614559901822" version="1.1" viewBox="0 0 1024 1024"><defs><style type="text/css"/></defs><path fill="#1296db" d="M83.348837 467.547287l351.652713 0c18.257364 0 32.545736-14.288372 32.545736-32.545736l0-351.652713c0-18.257364-14.288372-32.545736-32.545736-32.545736l-351.652713 0c-18.257364 0-32.545736 14.288372-32.545736 32.545736l0 351.652713c0 17.463566 15.082171 32.545736 32.545736 32.545736zm32.545736-351.652713l286.56124 0 0 286.56124-286.56124 0 0-286.56124z" p-id="2452"/><path fill="#1296db" d="M973.196899 83.348837c0-18.257364-14.288372-32.545736-32.545736-32.545736l-351.652713 0c-18.257364 0-32.545736 14.288372-32.545736 32.545736l0 351.652713c0 18.257364 14.288372 32.545736 32.545736 32.545736l351.652713 0c18.257364 0 32.545736-14.288372 32.545736-32.545736l0-351.652713zm-65.091473 319.106977l-286.56124 0 0-286.56124 286.56124 0 0 286.56124z" p-id="2453"/><path fill="#1296db" d="M83.348837 973.196899l351.652713 0c18.257364 0 32.545736-14.288372 32.545736-32.545736l0-351.652713c0-18.257364-14.288372-32.545736-32.545736-32.545736l-351.652713 0c-18.257364 0-32.545736 14.288372-32.545736 32.545736l0 351.652713c0 17.463566 15.082171 32.545736 32.545736 32.545736zm32.545736-351.652713l286.56124 0 0 286.56124-286.56124 0 0-286.56124z" p-id="2454"/><path fill="#1296db" d="M940.651163 556.452713l-351.652713 0c-18.257364 0-32.545736 14.288372-32.545736 32.545736l0 351.652713c0 18.257364 14.288372 32.545736 32.545736 32.545736l351.652713 0c18.257364 0 32.545736-14.288372 32.545736-32.545736l0-351.652713c0-17.463566-15.082171-32.545736-32.545736-32.545736zm-32.545736 351.652713l-286.56124 0 0-286.56124 286.56124 0 0 286.56124z" p-id="2455"/></svg>