<svg xmlns="http://www.w3.org/2000/svg" xmlns:xlink="http://www.w3.org/1999/xlink" width="290" height="290" version="1.1" viewBox="0 0 290 290"><title>成功</title><desc>Created with Sketch.</desc><defs><filter id="filter-1" width="110.8%" height="110.8%" x="-5.4%" y="-5.4%" filterUnits="objectBoundingBox"><feGaussianBlur in="SourceGraphic" stdDeviation="3.571"/></filter><filter id="filter-2" width="103.4%" height="103.4%" x="-1.7%" y="-1.7%" filterUnits="objectBoundingBox"><feGaussianBlur in="SourceGraphic" stdDeviation="1.429"/></filter></defs><g id="Page-1" fill="none" fill-rule="evenodd" stroke="none" stroke-width="1"><g id="实名认证-认证失败备份" transform="translate(-227.000000, -317.000000)"><g id="成功" transform="translate(231.000000, 321.000000)"><circle id="Oval" cx="141" cy="141" r="80" fill="#C06359" fill-opacity=".101" stroke="#C06359" opacity=".4"/><g id="Group-4" fill="#C06359" transform="translate(141.346717, 141.346717) rotate(-315.000000) translate(-141.346717, -141.346717) translate(96.346717, 96.346717)"><path id="Combined-Shape" d="M45,-1.12265752e-12 C47.4852814,-1.12311406e-12 49.5,2.01471863 49.5,4.5 L49.5,40.5 L85.5,40.5 C87.9852814,40.5 90,42.5147186 90,45 C90,47.4852814 87.9852814,49.5 85.5,49.5 L49.5,49.5 L49.5,85.5 C49.5,87.9852814 47.4852814,90 45,90 C42.5147186,90 40.5,87.9852814 40.5,85.5 L40.5,49.5 L4.5,49.5 C2.01471863,49.5 -1.19340744e-12,47.4852814 -1.1937118e-12,45 C-1.19401616e-12,42.5147186 2.01471863,40.5 4.5,40.5 L40.5,40.5 L40.5,4.5 C40.5,2.01471863 42.5147186,-1.12220098e-12 45,-1.12265752e-12 Z"/></g><circle id="Oval" cx="141" cy="141" r="104" stroke="#C06359" filter="url(#filter-1)" opacity=".348"/><circle id="Oval" cx="141" cy="141" r="141" stroke="#C06359" filter="url(#filter-2)" opacity=".167"/></g></g></g></svg>