<svg xmlns="http://www.w3.org/2000/svg" xmlns:xlink="http://www.w3.org/1999/xlink" width="105" height="104" version="1.1" viewBox="0 0 105 104"><title>Send Button</title><defs><path id="path-1" d="M28,0 L36,0 C51.463973,-2.84068575e-15 64,12.536027 64,28 L64,36 C64,51.463973 51.463973,64 36,64 L28,64 C12.536027,64 1.8937905e-15,51.463973 0,36 L0,28 C-1.8937905e-15,12.536027 12.536027,2.84068575e-15 28,0 Z"/><filter id="filter-2" width="193.8%" height="193.8%" x="-46.9%" y="-46.9%" filterUnits="objectBoundingBox"><feOffset dx="0" dy="0" in="SourceAlpha" result="shadowOffsetOuter1"/><feGaussianBlur in="shadowOffsetOuter1" result="shadowBlurOuter1" stdDeviation="10"/><feColorMatrix in="shadowBlurOuter1" type="matrix" values="0 0 0 0 0.898039216 0 0 0 0 0.384313725 0 0 0 0 0.360784314 0 0 0 0.4 0"/></filter><circle id="path-3" cx="32" cy="32" r="32"/></defs><g id="司机端2" fill="none" fill-rule="evenodd" stroke="none" stroke-width="1"><g id="有正在进行中的行程" transform="translate(-216.000000, -713.000000)"><g id="路线图" transform="translate(226.000000, 205.000000)"><g id="Send-Button" transform="translate(10.514762, 528.000000)"><g id="Container"><g id="Background" fill="#000" fill-opacity="1"><use filter="url(#filter-2)" xlink:href="#path-1"/></g><mask id="mask-4" fill="#fff"><use xlink:href="#path-3"/></mask><use id="Oval" fill="#E5625C" xlink:href="#path-3"/></g><polygon id="Path" fill="#FFF" points="16.8 16.8 21.45 29.665 16.8 43.169 44.824 29.984" transform="translate(30.812000, 29.984361) rotate(-109.000000) translate(-30.812000, -29.984361)"/></g></g></g></g></svg>