<svg xmlns="http://www.w3.org/2000/svg" xmlns:xlink="http://www.w3.org/1999/xlink" width="42" height="42" version="1.1" viewBox="0 0 42 42"><title>认证 (1)</title><desc>Created with Sketch.</desc><defs><rect id="path-1" width="48" height="48" x="0" y="0"/></defs><g id="Page-1" fill="none" fill-rule="evenodd" stroke="none" stroke-width="1"><g id="个人-租客-未登录" transform="translate(-33.000000, -664.000000)"><g id="场所编号-copy-9" transform="translate(0.000000, 635.000000)"><g id="认证-(1)" transform="translate(30.000000, 26.000000)"><mask id="mask-2" fill="#fff"><use xlink:href="#path-1"/></mask><g fill="#333" fill-rule="nonzero" mask="url(#mask-2)"><g transform="translate(3.000000, 3.000000)"><polygon id="Shape" points="19.667 34.04 18.195 34.04 11.844 21.744 9.402 23.134 8.619 20.71 13.726 17.797 19.537 29.159 29.792 11.476 32.209 11.476 32.209 11.679"/><path id="Combined-Shape" d="M30.9184096,5.9764098 C27.9993322,4.04472293 24.5811861,3 21,3 C11.0588745,3 3,11.0588745 3,21 C3,30.9411255 11.0588745,39 21,39 C30.9411255,39 39,30.9411255 39,21 C39,18.1148946 38.3228349,15.3332923 37.041319,12.8246208 L37.0456789,12.8223936 C36.9702031,12.6433653 36.9284798,12.4466212 36.9284798,12.2401322 C36.9284798,11.4117051 37.6000526,10.7401322 38.4284798,10.7401322 C38.9716127,10.7401322 39.4473239,11.028799 39.7105608,11.46108 L39.7129225,11.4598736 C39.7194757,11.4727019 39.726016,11.4855379 39.7325435,11.4983815 C39.757922,11.5429031 39.7810862,11.5888505 39.8018863,11.6360738 C41.2086403,14.4552404 42,17.6352042 42,21 C42,32.5979797 32.5979797,42 21,42 C9.40202025,42 0,32.5979797 0,21 C0,9.40202025 9.40202025,0 21,0 C25.2770399,0 29.255441,1.27862471 32.5738094,3.47448026 C32.9893,3.74119734 33.2645887,4.20729827 33.2645887,4.73769631 C33.2645887,5.56612343 32.5930158,6.23769631 31.7645887,6.23769631 C31.450671,6.23769631 31.1592759,6.1412654 30.9184096,5.9764098 Z"/></g></g></g></g></g></g></svg>