<svg xmlns="http://www.w3.org/2000/svg" xmlns:xlink="http://www.w3.org/1999/xlink" width="1080" height="2176" version="1.1" viewBox="0 0 1080 2176"><title>未命名</title><desc>Created with Sketch.</desc><g id="页面-1" fill="none" fill-rule="evenodd" stroke="none" stroke-width="1"><rect id="矩形" width="1080" height="602" x="0" y="0" fill="#FFF" rx="10"/><rect id="矩形备份-3" width="1080" height="1211" x="0" y="965" fill="#FFF" rx="10"/><rect id="矩形备份-2" width="1080" height="297" x="0" y="635" fill="#FFF" rx="10"/><rect id="矩形" width="540" height="62" x="36" y="663" fill="#F5F5FA" rx="10"/><rect id="矩形备份" width="470" height="62" x="36" y="993" fill="#F5F5FA" rx="10"/><circle id="椭圆形" cx="171.5" cy="838.5" r="70.5" fill="#F5F5FA"/><circle id="椭圆形备份-3" cx="133.5" cy="1196.5" r="70.5" fill="#F5F5FA"/><circle id="椭圆形备份-7" cx="133.5" cy="1421.5" r="70.5" fill="#F5F5FA"/><circle id="椭圆形备份-11" cx="133.5" cy="1631.5" r="70.5" fill="#F5F5FA"/><circle id="椭圆形备份-15" cx="133.5" cy="1843.5" r="70.5" fill="#F5F5FA"/><circle id="椭圆形备份-19" cx="133.5" cy="2068.5" r="70.5" fill="#F5F5FA"/><circle id="椭圆形备份-4" cx="395.5" cy="1196.5" r="70.5" fill="#F5F5FA"/><circle id="椭圆形备份-8" cx="395.5" cy="1421.5" r="70.5" fill="#F5F5FA"/><circle id="椭圆形备份-12" cx="395.5" cy="1631.5" r="70.5" fill="#F5F5FA"/><circle id="椭圆形备份-16" cx="395.5" cy="1843.5" r="70.5" fill="#F5F5FA"/><circle id="椭圆形备份-20" cx="395.5" cy="2068.5" r="70.5" fill="#F5F5FA"/><circle id="椭圆形备份-5" cx="677.5" cy="1196.5" r="70.5" fill="#F5F5FA"/><circle id="椭圆形备份-9" cx="677.5" cy="1421.5" r="70.5" fill="#F5F5FA"/><circle id="椭圆形备份-13" cx="677.5" cy="1631.5" r="70.5" fill="#F5F5FA"/><circle id="椭圆形备份-17" cx="677.5" cy="1843.5" r="70.5" fill="#F5F5FA"/><circle id="椭圆形备份-21" cx="677.5" cy="2068.5" r="70.5" fill="#F5F5FA"/><circle id="椭圆形备份-6" cx="939.5" cy="1196.5" r="70.5" fill="#F5F5FA"/><circle id="椭圆形备份-10" cx="939.5" cy="1421.5" r="70.5" fill="#F5F5FA"/><circle id="椭圆形备份-14" cx="939.5" cy="1631.5" r="70.5" fill="#F5F5FA"/><circle id="椭圆形备份-18" cx="939.5" cy="1843.5" r="70.5" fill="#F5F5FA"/><circle id="椭圆形备份-22" cx="939.5" cy="2068.5" r="70.5" fill="#F5F5FA"/><circle id="椭圆形备份" cx="536.5" cy="838.5" r="70.5" fill="#F5F5FA"/><circle id="椭圆形备份-2" cx="901.5" cy="838.5" r="70.5" fill="#F5F5FA"/></g></svg>